<svg width="109" height="96" viewBox="0 0 109 96" fill="none" xmlns="http://www.w3.org/2000/svg">
<path fill-rule="evenodd" clip-rule="evenodd" d="M62.9027 5.46938e-06C64.2933 -0.00200589 65.6272 0.550811 66.6087 1.53589L80.7985 15.7257H99.5959C102.491 15.7257 104.838 18.0726 104.838 20.9676L104.837 50.846H94.354L94.354 26.2095H78.6284C77.2378 26.2115 75.9039 25.6587 74.9223 24.6736L60.7326 10.4838H44.1053L29.9155 24.6736C28.9352 25.6591 27.6038 26.2095 26.2095 26.2095H10.4838V83.8703L57.136 83.87V94.354L5.24189 94.3541C2.41925 94.3541 0.117686 92.1231 0.00437228 89.3282L0 89.1122V20.9676C0 18.0726 2.34687 15.7257 5.24189 15.7257H24.0393L38.2291 1.53589C39.2106 0.550811 40.5445 -0.00200589 41.9351 5.46938e-06H62.9027ZM52.4189 31.4514C63.7833 31.4514 73.3865 41.0545 73.3865 52.4189C73.3865 63.7833 63.7833 73.3865 52.4189 73.3865C41.0545 73.3865 31.4513 63.7833 31.4513 52.4189C31.4513 41.0545 41.0545 31.4514 52.4189 31.4514ZM52.4189 41.9351C46.8363 41.9351 41.9351 46.8363 41.9351 52.4189C41.9351 58.0015 46.8363 62.9027 52.4189 62.9027C58.0015 62.9027 62.9027 58.0015 62.9027 52.4189C62.9027 46.8363 58.0015 41.9351 52.4189 41.9351Z" fill="#0898A0"/>
<path fill-rule="evenodd" clip-rule="evenodd" d="M78.6283 81.1759L71.8505 74.3982L64.4385 81.8102L78.6283 96L108.544 66.0845L101.132 58.6725L78.6283 81.1759Z" fill="#091E45"/>
</svg>
