<svg width="509" height="1024" viewBox="0 0 509 1024" fill="none" xmlns="http://www.w3.org/2000/svg">
<rect y="-2" width="509" height="1026" fill="url(#paint0_linear_324:8166)"/>
<path d="M229.737 523.195C232.027 525.972 236.474 525.08 237.452 521.616C257.222 451.568 262.771 366.971 253.315 278.637C243.493 186.882 217.965 95.6229 180.259 17.4673C142.552 -60.6883 94.5275 -121.884 42.8192 -157.665C-8.88913 -193.446 -61.7292 -202.048 -108.402 -182.281C-155.074 -162.515 -193.276 -115.356 -217.729 -47.3188C-242.182 20.7182 -251.68 106.275 -244.911 197.533C-238.142 288.791 -215.44 381.247 -179.941 462.127C-146.078 539.28 -102.165 602.268 -53.7819 643.26C-50.7209 645.853 -46.0741 643.977 -45.553 639.999C-45.3181 638.206 -46.0354 636.429 -47.4385 635.289C-96.1718 595.674 -140.471 533.057 -174.381 455.798C-208.815 377.344 -230.837 287.662 -237.402 199.142C-243.968 110.622 -234.755 27.6313 -211.036 -38.3646C-187.316 -104.36 -150.261 -150.105 -104.988 -169.278C-59.7158 -188.452 -8.46086 -180.108 41.6962 -145.4C91.8533 -110.692 138.437 -51.333 175.012 24.4779C211.588 100.289 236.349 188.81 245.877 277.812C255.299 365.831 249.362 450.025 228.892 519.025C228.462 520.471 228.777 522.031 229.737 523.195Z" fill="#7CA0C0" fill-opacity="0.1"/>
<path d="M233.397 508.874C235.492 511.421 239.57 510.598 240.461 507.423C262.217 429.92 264.91 333.441 247.931 235.62C230.406 134.655 193.179 39.4912 143.503 -31.3304C93.8261 -102.152 35.2578 -143.559 -20.7922 -147.486C-76.8421 -151.412 -126.359 -117.577 -159.697 -52.5706C-193.035 12.4356 -207.806 103.956 -201.131 204.162C-194.457 304.368 -166.817 406.082 -123.594 489.488C-80.3713 572.894 -24.6625 632.019 32.6795 655.345C89.0229 678.264 142.978 665.007 184.404 618.188C185.752 616.665 186.069 614.484 185.243 612.626C183.666 609.078 178.908 608.392 176.251 611.224C136.547 653.539 85.6386 665.061 32.5432 643.463C-23.0785 620.837 -77.1161 563.485 -119.042 482.581C-160.968 401.677 -187.78 303.015 -194.253 205.815C-200.727 108.616 -186.4 19.8405 -154.062 -43.2156C-121.725 -106.272 -73.6928 -139.092 -19.3243 -135.284C35.0442 -131.475 91.8554 -91.3096 140.042 -22.6126C188.228 46.0844 224.338 138.393 241.337 236.33C258.181 333.37 255.067 429.049 232.625 505.07C232.236 506.39 232.523 507.811 233.397 508.874Z" fill="#7CA0C0" fill-opacity="0.1"/>
<path d="M233.791 489.257C235.753 491.632 239.56 490.868 240.399 487.903C257.707 426.79 262.338 352.77 253.61 275.662C244.551 195.628 221.565 116.372 187.941 49.2384C154.318 -17.895 111.782 -69.4631 66.4219 -98.0837C21.0618 -126.704 -24.7962 -130.91 -64.5876 -110.099C-104.379 -89.2879 -136.063 -44.5268 -155.105 17.7764C-174.147 80.0797 -179.57 156.731 -170.597 236.757C-161.625 316.783 -138.717 396.08 -105.154 463.298C-73.2111 527.27 -33.1752 577.179 9.7092 606.646C12.6356 608.657 16.5644 606.678 16.8172 603.136C16.94 601.414 16.1111 599.772 14.6664 598.827C-28.4399 570.646 -68.7767 521.135 -100.753 457.097C-133.31 391.895 -155.53 314.976 -164.233 237.351C-172.936 159.726 -167.676 85.3746 -149.206 24.9404C-130.735 -35.4938 -100.001 -78.912 -61.4035 -99.0988C-22.8059 -119.286 21.6764 -115.206 65.6756 -87.444C109.675 -59.6819 150.935 -9.66087 183.55 55.4585C216.164 120.578 238.461 197.457 247.248 275.09C255.94 351.878 250.973 425.509 233.065 485.677C232.696 486.918 232.966 488.258 233.791 489.257Z" fill="#7CA0C0" fill-opacity="0.1"/>
<path d="M253.019 417.47C254.946 418.45 257.185 415.916 257.224 412.672C258.044 344.764 246.497 272.597 224.108 206.035C200.961 137.222 167.435 77.9927 128.413 36.9744C89.3916 -4.0439 46.9122 -24.7085 7.16262 -22.0095C-31.4092 -19.3903 -65.4552 5.09571 -90.3249 47.9987C-91.6381 50.2641 -91.7361 53.4362 -90.5982 55.4058C-89.1901 57.843 -86.5024 57.4544 -84.8598 54.6748C-60.8158 13.9884 -28.1376 -9.22305 8.82505 -11.7329C47.3821 -14.351 88.5872 5.69367 126.438 45.4815C164.29 85.2692 196.81 142.722 219.262 209.47C241.388 275.25 252.597 346.671 251.327 413.619C251.293 415.416 251.952 416.927 253.019 417.47Z" fill="#7CA0C0" fill-opacity="0.1"/>
<path d="M245.39 455.845C247.182 456.757 249.263 454.402 249.3 451.386C249.827 407.681 244.847 361.848 234.675 316.957C224.006 269.873 207.897 225.023 187.533 185.706C167.17 146.39 143.07 113.607 117.006 89.7709C92.3454 67.2171 66.5205 53.2157 41.2371 48.657C39.1751 48.2852 37.2641 51.3574 37.5731 54.485C37.7531 56.3065 38.6656 57.6093 39.8708 57.8001C65.0889 61.7933 90.9159 75.524 115.546 98.0496C140.827 121.171 164.205 152.97 183.957 191.107C203.71 229.244 219.336 272.749 229.684 318.42C239.819 363.146 244.641 408.835 243.817 452.262C243.785 453.933 244.399 455.34 245.39 455.845Z" fill="#7CA0C0" fill-opacity="0.1"/>
<path d="M231.182 524.25C233.581 527.522 237.886 527.824 238.957 524.77C258.801 468.181 269.307 400.371 269.58 326.872C269.865 250.422 259.07 170.176 238.153 93.2439C217.236 16.3115 186.841 -54.9332 149.662 -114.179C112.482 -173.426 69.6652 -218.845 25.0037 -246.413C-19.6578 -273.982 -64.7854 -282.849 -106.382 -272.23C-147.978 -261.61 -184.759 -231.832 -213.467 -185.532C-242.175 -139.233 -261.923 -77.8407 -270.963 -6.79471C-279.811 62.7473 -278.132 139.438 -266.088 216.755C-265.68 219.374 -263.094 221.625 -260.692 221.464C-258.811 221.338 -257.681 219.748 -258.003 217.696C-269.874 142.252 -271.572 67.386 -262.939 -0.464652C-254.17 -69.3792 -235.014 -128.929 -207.167 -173.84C-179.321 -218.751 -143.643 -247.636 -103.295 -257.937C-62.9463 -268.238 -19.1726 -259.636 24.1491 -232.895C67.4707 -206.153 109.003 -162.097 145.067 -104.628C181.131 -47.159 210.614 21.9484 230.904 96.5728C251.194 171.197 261.664 249.035 261.388 323.192C261.116 396.319 250.402 463.641 230.181 519.366C229.654 520.818 230.034 522.684 231.182 524.25Z" fill="#7CA0C0" fill-opacity="0.1"/>
<path d="M236.623 511.984C238.648 514.054 241.7 512.09 242.492 508.143C251.268 464.422 254.368 415.662 251.587 364.738C248.633 310.647 239.112 255.358 223.659 202.557C208.206 149.756 187.176 100.657 161.971 58.535C136.766 16.4129 107.965 -17.7646 77.4906 -41.7181C47.0157 -65.6716 15.5665 -78.8507 -14.7596 -80.3765C-45.0857 -81.9022 -73.5917 -71.7396 -98.3767 -50.5663C-123.162 -29.3929 -143.656 2.30439 -158.493 42.4119C-173.006 81.6453 -181.78 128.044 -184.262 178.638C-184.363 180.693 -183.643 182.461 -182.446 183.134C-180.285 184.349 -177.69 181.563 -177.478 177.851C-174.778 130.55 -166.364 87.1527 -152.724 50.2802C-138.333 11.3759 -118.453 -19.3706 -94.4116 -39.9087C-70.3702 -60.4468 -42.7193 -70.3046 -13.303 -68.8246C16.1133 -67.3446 46.619 -54.5609 76.1796 -31.3259C105.74 -8.09102 133.677 25.0611 158.125 65.9195C182.574 106.778 202.973 154.404 217.963 205.621C232.953 256.837 242.188 310.468 245.053 362.937C247.833 413.848 244.554 462.528 235.432 505.927C234.931 508.313 235.396 510.73 236.623 511.984Z" fill="#7CA0C0" fill-opacity="0.1"/>
<defs>
<linearGradient id="paint0_linear_324:8166" x1="254.5" y1="-2" x2="254.5" y2="1024" gradientUnits="userSpaceOnUse">
<stop offset="0.0118116" stop-color="#F5F6F8"/>
<stop offset="0.534279" stop-color="#C6D3DE"/>
<stop offset="0.877391" stop-color="#5F8DB5"/>
</linearGradient>
</defs>
</svg>
