<?xml version="1.0" encoding="utf-8"?>
<!-- Generator: Adobe Illustrator 25.2.0, SVG Export Plug-In . SVG Version: 6.00 Build 0)  -->
<svg version="1.1" id="Layer_1" xmlns="http://www.w3.org/2000/svg" xmlns:xlink="http://www.w3.org/1999/xlink" x="0px" y="0px"
	 viewBox="0 0 171 67.2" style="enable-background:new 0 0 171 67.2;" xml:space="preserve">
<style type="text/css">
	.st0{fill:#383976;}
	.st1{font-family:'ArcaMajora3-Bold';}
	.st2{font-size:11.7141px;}
	.st3{letter-spacing:2;}
</style>
<g>
	<path class="st0" d="M64.5,33.6c0,0.8,0,1.6-0.1,2.4h-5.6c0.1-0.8,0.1-1.6,0.1-2.4c0-14.1-11.4-25.5-25.5-25.5
		C20.2,8.1,9.3,18.2,8,31.1h6.6c1.2-9.3,9.2-16.5,18.8-16.5S51,21.8,52.2,31.1c0.1,0.8,0.2,1.6,0.2,2.5c0,0.8-0.1,1.7-0.2,2.5H35
		l-4.7-4.3l-0.7-0.6h17.8c-1.2-6.7-7-11.8-14-11.8c-7.9,0-14.3,6.4-14.3,14.2s6.4,14.2,14.3,14.2c3.1,0,6-1,8.3-2.7
		c1.4-1,2.5-2.2,3.5-3.6l3.5,3.2l4.8,4.5l4.1,3.8c-1.1,1.3-2.2,2.5-3.4,3.6c-5.5,4.9-12.8,7.9-20.8,7.9c-15.2,0-27.8-10.9-30.6-25.2
		h5.7c2.7,11.2,12.7,19.6,24.8,19.6c6.3,0,12.2-2.3,16.6-6.2l-4.8-4.5c-3.2,2.6-7.3,4.1-11.8,4.1c-9.7,0-17.6-7.2-18.8-16.5H2.4
		c-0.1-0.8-0.1-1.6-0.1-2.4c0-17.2,13.9-31.1,31.1-31.1C50.6,2.5,64.5,16.4,64.5,33.6z"/>
	<path class="st0" d="M94.3,23.5c-0.1-5.3-3.9-8.8-8.9-8.8c-5.3,0-9.1,4-9.1,9s3.8,9,9.3,9c3.7,0,6.6-1.8,8-4.6l-3.6-1.5
		c-0.9,1.6-2.6,2.5-4.4,2.5c-2.5,0-4.5-1.8-4.9-4.6h13.7L94.3,23.5z M81.1,21.1c0.8-1.8,2.3-2.9,4.4-2.9c2,0,3.4,1.1,4.1,2.9H81.1z"
		/>
	<path class="st0" d="M110.8,15v2c-1.3-1.5-3.2-2.4-5.6-2.4c-4.7,0-8.6,4-8.6,9c0,5.1,3.9,9,8.6,9c2.6,0,4.5-1,5.8-2.6l0.1,2.2h4.2
		V15C115.2,15,110.8,15,110.8,15z M106,28.6c-2.8,0-5-2.2-5-5c0-2.8,2.2-5,5-5c2.8,0,4.9,2.2,4.9,5C110.9,26.4,108.7,28.6,106,28.6z
		"/>
	<path class="st0" d="M134,15h-15.2v3.6h8.2l-8.7,13.7H134v-3.6h-8.7L134,15z"/>
	<path class="st0" d="M151.5,15h-15.2v3.6h8.2l-8.7,13.7h15.6v-3.6h-8.7L151.5,15z"/>
	<text transform="matrix(1 0 0 1 78.1606 47.5749)" class="st0 st1 st2 st3">FINANCIALS</text>
	<polygon class="st0" points="168.7,15 163.4,26.8 163.4,32.4 158.6,32.4 158.6,26.6 153.4,15 157.3,15 161,23.7 164.6,15 	"/>
</g>
</svg>
