<svg width="46" height="46" viewBox="0 0 46 46" fill="none" xmlns="http://www.w3.org/2000/svg">
<g style="mix-blend-mode:multiply">
<circle cx="23" cy="23" r="23" fill="#F7F8FC"/>
</g>
<path d="M24.2216 30.7219H24.4462V30.7558H24.2621V30.8796H24.4362V30.914H24.2621V31.0432H24.4462V31.0771H24.2216V30.7219ZM24.7884 30.8202C24.8439 30.8202 24.8717 30.8533 24.8717 30.9195V31.0771H24.8313V30.9215C24.8313 30.8979 24.8271 30.8807 24.8188 30.8701C24.8108 30.8594 24.7977 30.8541 24.7794 30.8541C24.7581 30.8541 24.7415 30.8613 24.7295 30.8756C24.7175 30.8899 24.7115 30.9093 24.7115 30.934V31.0771H24.6711V30.9215C24.6711 30.8982 24.667 30.8812 24.6587 30.8706C24.6503 30.8596 24.637 30.8541 24.6187 30.8541C24.5974 30.8541 24.5807 30.8613 24.5683 30.8756C24.5564 30.8899 24.5504 30.9093 24.5504 30.934V31.0771H24.51V30.8965C24.51 30.8706 24.5086 30.8471 24.506 30.8262H24.5444L24.5484 30.8701C24.5554 30.8541 24.5657 30.8418 24.5793 30.8332C24.5933 30.8245 24.6094 30.8202 24.6277 30.8202C24.6477 30.8202 24.664 30.8242 24.6766 30.8322C24.6893 30.8402 24.6986 30.8525 24.7046 30.8691C24.7122 30.8541 24.7233 30.8423 24.738 30.8337C24.7529 30.8247 24.7697 30.8202 24.7884 30.8202ZM25.1695 30.8262V31.0771H25.1296V31.0317C25.1223 31.0474 25.1111 31.0595 25.0962 31.0682C25.0815 31.0765 25.0644 31.0806 25.0448 31.0806C25.0225 31.0806 25.0029 31.0753 24.9859 31.0647C24.9693 31.054 24.9563 31.0391 24.947 31.0198C24.938 31.0001 24.9335 30.9774 24.9335 30.9514C24.9335 30.9255 24.9382 30.9027 24.9475 30.8831C24.9568 30.8631 24.9698 30.8476 24.9864 30.8367C25.0034 30.8257 25.0228 30.8202 25.0448 30.8202C25.0644 30.8202 25.0815 30.8245 25.0962 30.8332C25.1108 30.8418 25.1219 30.854 25.1296 30.8696V30.8262H25.1695ZM25.0528 31.0472C25.0774 31.0472 25.0963 31.0389 25.1096 31.0223C25.1229 31.0053 25.1296 30.9814 25.1296 30.9504C25.1296 30.9195 25.1229 30.8957 25.1096 30.8791C25.0963 30.8624 25.0774 30.8541 25.0528 30.8541C25.0281 30.8541 25.0089 30.8628 24.9949 30.8801C24.9812 30.897 24.9744 30.9208 24.9744 30.9514C24.9744 30.982 24.9812 31.0056 24.9949 31.0223C25.0085 31.0389 25.0278 31.0472 25.0528 31.0472ZM25.2476 30.8262H25.2881V31.0771H25.2476V30.8262ZM25.2931 30.7199V30.7658H25.2437V30.7199H25.2931ZM25.3665 30.7099H25.4069V31.0771H25.3665V30.7099ZM24.3344 32.0811C24.2789 32.0811 24.2346 32.0662 24.2017 32.0362L24.2172 32.0048C24.2348 32.0198 24.2527 32.0304 24.271 32.0367C24.2893 32.0431 24.3106 32.0462 24.3349 32.0462C24.3635 32.0462 24.3855 32.0407 24.4008 32.0297C24.4164 32.0184 24.4242 32.0026 24.4242 31.9824C24.4242 31.9704 24.4204 31.9607 24.4127 31.9534C24.4054 31.9458 24.3956 31.9398 24.3833 31.9355C24.3713 31.9311 24.3552 31.9266 24.3349 31.922C24.3076 31.916 24.2852 31.9095 24.2675 31.9025C24.2499 31.8955 24.2356 31.8856 24.2246 31.8726C24.2137 31.8593 24.2082 31.842 24.2082 31.8207C24.2082 31.8004 24.2135 31.7826 24.2241 31.7673C24.2348 31.7517 24.2497 31.7395 24.269 31.7309C24.2887 31.7222 24.3114 31.7179 24.3374 31.7179C24.362 31.7179 24.385 31.7217 24.4062 31.7294C24.4275 31.737 24.4455 31.7482 24.4601 31.7628L24.4442 31.7943C24.4275 31.78 24.4106 31.7695 24.3933 31.7628C24.3763 31.7562 24.3577 31.7528 24.3374 31.7528C24.3098 31.7528 24.2882 31.7588 24.2725 31.7708C24.2569 31.7824 24.2491 31.7986 24.2491 31.8192C24.2491 31.8372 24.2559 31.8506 24.2695 31.8596C24.2832 31.8686 24.3041 31.8764 24.3324 31.8831C24.363 31.8904 24.387 31.8972 24.4042 31.9035C24.4219 31.9095 24.4365 31.9188 24.4482 31.9315C24.4598 31.9438 24.4656 31.9602 24.4656 31.9809C24.4656 32.0008 24.4603 32.0184 24.4497 32.0337C24.439 32.0487 24.4237 32.0604 24.4038 32.0687C24.3841 32.077 24.361 32.0811 24.3344 32.0811ZM24.7376 31.9504H24.5535C24.5538 31.9824 24.5611 32.0065 24.5754 32.0228C24.59 32.0391 24.6112 32.0472 24.6388 32.0472C24.668 32.0472 24.695 32.0374 24.7196 32.0178L24.7331 32.0472C24.7221 32.0575 24.708 32.0657 24.6907 32.0717C24.6737 32.0776 24.6562 32.0806 24.6383 32.0806C24.599 32.0806 24.5683 32.0692 24.546 32.0462C24.5237 32.0229 24.5125 31.9912 24.5125 31.9509C24.5125 31.9253 24.5175 31.9027 24.5275 31.8831C24.5375 31.8631 24.5515 31.8476 24.5694 31.8367C24.5874 31.8257 24.6078 31.8202 24.6308 31.8202C24.6641 31.8202 24.6902 31.8312 24.7091 31.8531C24.7281 31.8747 24.7376 31.9047 24.7376 31.9429V31.9504ZM24.6313 31.8516C24.6103 31.8516 24.5932 31.858 24.5799 31.8706C24.5669 31.8832 24.5586 31.901 24.555 31.924H24.7011C24.6991 31.9004 24.6922 31.8824 24.6802 31.8701C24.6685 31.8578 24.6522 31.8516 24.6313 31.8516ZM24.8513 31.8581V31.9953C24.8513 32.014 24.8552 32.0271 24.8628 32.0347C24.8705 32.0421 24.8813 32.0457 24.8952 32.0457C24.9045 32.0457 24.9135 32.0442 24.9222 32.0412V32.0757C24.9119 32.079 24.9002 32.0806 24.8872 32.0806C24.8633 32.0806 24.8445 32.074 24.8309 32.0607C24.8176 32.047 24.8109 32.0271 24.8109 32.0008V31.8581H24.762V31.8262H24.8109V31.7618L24.8513 31.7474V31.8262H24.9232V31.8581H24.8513ZM25.0272 31.8581V31.9953C25.0272 32.014 25.031 32.0271 25.0387 32.0347C25.0463 32.0421 25.0572 32.0457 25.0711 32.0457C25.0804 32.0457 25.0894 32.0442 25.0981 32.0412V32.0757C25.0878 32.079 25.0761 32.0806 25.0631 32.0806C25.0392 32.0806 25.0204 32.074 25.0068 32.0607C24.9935 32.047 24.9868 32.0271 24.9868 32.0008V31.8581H24.9379V31.8262H24.9868V31.7618L25.0272 31.7474V31.8262H25.0991V31.8581H25.0272ZM25.1478 31.8262H25.1882V32.0771H25.1478V31.8262ZM25.1932 31.7199V31.7658H25.1438V31.7199H25.1932ZM24.3419 32.8202C24.4021 32.8202 24.4322 32.8533 24.4322 32.9195V33.0771H24.3918V32.9215C24.3918 32.8982 24.3871 32.8812 24.3778 32.8706C24.3685 32.8596 24.3539 32.8541 24.3339 32.8541C24.3106 32.8541 24.292 32.8613 24.278 32.8756C24.264 32.8899 24.2571 32.9092 24.2571 32.9335V33.0771H24.2167V32.8965C24.2167 32.8706 24.2153 32.8471 24.2127 32.8262H24.2511L24.2551 32.8711C24.2627 32.8548 24.2742 32.8423 24.2895 32.8337C24.3048 32.8247 24.3223 32.8202 24.3419 32.8202ZM24.732 32.8262V33.0752C24.732 33.1124 24.7224 33.1405 24.7031 33.1595C24.6841 33.1788 24.656 33.1884 24.6188 33.1884C24.5805 33.1884 24.5476 33.1798 24.52 33.1625L24.527 33.1295C24.5429 33.1385 24.5579 33.145 24.5719 33.149C24.5862 33.153 24.6018 33.155 24.6188 33.155C24.6431 33.155 24.6613 33.1485 24.6737 33.1355C24.686 33.1229 24.6921 33.1039 24.6921 33.0786V33.0193C24.6845 33.0352 24.6732 33.0477 24.6582 33.0567C24.6436 33.0653 24.6261 33.0697 24.6058 33.0697C24.5838 33.0697 24.5642 33.0645 24.5469 33.0542C24.53 33.0439 24.5168 33.0293 24.5075 33.0103C24.4982 32.9913 24.4935 32.9695 24.4935 32.9449C24.4935 32.9203 24.4982 32.8985 24.5075 32.8796C24.5168 32.8606 24.53 32.846 24.5469 32.8357C24.5642 32.8254 24.5838 32.8202 24.6058 32.8202C24.6258 32.8202 24.6431 32.8245 24.6577 32.8332C24.6727 32.8418 24.684 32.854 24.6916 32.8696V32.8262H24.732ZM24.6138 33.0357C24.6381 33.0357 24.657 33.0278 24.6707 33.0118C24.6846 32.9955 24.6916 32.9732 24.6916 32.9449C24.6916 32.9167 24.6846 32.8945 24.6707 32.8786C24.657 32.8623 24.6381 32.8541 24.6138 32.8541C24.5892 32.8541 24.5697 32.8623 24.5554 32.8786C24.5414 32.8945 24.5345 32.9167 24.5345 32.9449C24.5345 32.9732 24.5414 32.9955 24.5554 33.0118C24.5697 33.0278 24.5892 33.0357 24.6138 33.0357ZM24.8944 33.0806C24.8522 33.0806 24.8188 33.0698 24.7942 33.0482L24.8076 33.0183C24.8213 33.0289 24.8351 33.0366 24.849 33.0412C24.863 33.0459 24.8786 33.0482 24.8959 33.0482C24.9149 33.0482 24.9292 33.0451 24.9388 33.0387C24.9488 33.0321 24.9538 33.0226 24.9538 33.0103C24.9538 33.0003 24.9505 32.9923 24.9438 32.9863C24.9372 32.9804 24.9262 32.9757 24.9109 32.9724L24.8685 32.9624C24.8475 32.9577 24.8312 32.9494 24.8196 32.9374C24.8083 32.9255 24.8026 32.9112 24.8026 32.8945C24.8026 32.8726 24.8115 32.8548 24.8291 32.8412C24.8467 32.8272 24.87 32.8202 24.8989 32.8202C24.9166 32.8202 24.9332 32.823 24.9488 32.8287C24.9645 32.8343 24.9776 32.8425 24.9882 32.8531L24.9748 32.8826C24.9512 32.8629 24.9259 32.8531 24.8989 32.8531C24.881 32.8531 24.867 32.8566 24.857 32.8636C24.8474 32.8703 24.8426 32.8797 24.8426 32.892C24.8426 32.9024 24.8455 32.9105 24.8515 32.9165C24.8579 32.9225 24.8678 32.9271 24.8815 32.9305L24.9239 32.9409C24.9472 32.9463 24.9645 32.9546 24.9758 32.9659C24.9871 32.9769 24.9927 32.9913 24.9927 33.0093C24.9927 33.0309 24.9839 33.0482 24.9663 33.0612C24.9487 33.0742 24.9247 33.0806 24.8944 33.0806Z" fill="#091E45"/>
<path d="M24.2996 30.4513C24.2564 30.4513 24.222 30.4397 24.1964 30.4164L24.2084 30.392C24.2221 30.4036 24.2361 30.4119 24.2503 30.4168C24.2645 30.4217 24.2811 30.4242 24.3 30.4242C24.3222 30.4242 24.3393 30.4199 24.3512 30.4114C24.3634 30.4026 24.3694 30.3903 24.3694 30.3745C24.3694 30.3652 24.3665 30.3577 24.3605 30.352C24.3548 30.3461 24.3472 30.3414 24.3376 30.338C24.3283 30.3347 24.3158 30.3312 24.3 30.3276C24.2788 30.3229 24.2613 30.3179 24.2476 30.3124C24.2339 30.307 24.2227 30.2992 24.2142 30.2891C24.2057 30.2788 24.2014 30.2653 24.2014 30.2488C24.2014 30.233 24.2055 30.2192 24.2138 30.2073C24.2221 30.1951 24.2337 30.1857 24.2487 30.1789C24.264 30.1722 24.2817 30.1688 24.3019 30.1688C24.3211 30.1688 24.3389 30.1718 24.3555 30.1778C24.372 30.1837 24.386 30.1924 24.3974 30.2038L24.385 30.2282C24.372 30.2171 24.3588 30.2089 24.3454 30.2038C24.3322 30.1986 24.3177 30.196 24.3019 30.196C24.2804 30.196 24.2636 30.2007 24.2515 30.21C24.2393 30.219 24.2332 30.2316 24.2332 30.2476C24.2332 30.2616 24.2385 30.2721 24.2491 30.279C24.2597 30.286 24.276 30.2921 24.298 30.2973C24.3218 30.303 24.3405 30.3083 24.3539 30.3132C24.3676 30.3179 24.379 30.3251 24.3881 30.3349C24.3971 30.3445 24.4016 30.3573 24.4016 30.3733C24.4016 30.3889 24.3975 30.4026 24.3892 30.4145C24.3809 30.4261 24.369 30.4352 24.3535 30.4416C24.3383 30.4481 24.3203 30.4513 24.2996 30.4513ZM24.5472 30.2484C24.594 30.2484 24.6174 30.2741 24.6174 30.3256V30.4482H24.586V30.3272C24.586 30.3091 24.5824 30.2959 24.5751 30.2876C24.5679 30.279 24.5565 30.2748 24.541 30.2748C24.5229 30.2748 24.5084 30.2803 24.4975 30.2915C24.4866 30.3026 24.4812 30.3176 24.4812 30.3365V30.4482H24.4498V30.1626H24.4812V30.2849C24.4874 30.273 24.4962 30.2639 24.5076 30.2577C24.5192 30.2515 24.5324 30.2484 24.5472 30.2484ZM24.8402 30.3497H24.697C24.6972 30.3745 24.7029 30.3933 24.714 30.4059C24.7254 30.4186 24.7418 30.425 24.7633 30.425C24.7861 30.425 24.807 30.4173 24.8262 30.4021L24.8367 30.425C24.8281 30.433 24.8171 30.4393 24.8037 30.444C24.7905 30.4486 24.7769 30.451 24.7629 30.451C24.7324 30.451 24.7085 30.442 24.6911 30.4242C24.6738 30.4061 24.6651 30.3814 24.6651 30.3501C24.6651 30.3301 24.669 30.3126 24.6768 30.2973C24.6845 30.2818 24.6954 30.2697 24.7094 30.2612C24.7233 30.2527 24.7393 30.2484 24.7571 30.2484C24.783 30.2484 24.8033 30.2569 24.818 30.274C24.8328 30.2908 24.8402 30.3141 24.8402 30.3439V30.3497ZM24.7575 30.2728C24.7412 30.2728 24.7279 30.2778 24.7175 30.2876C24.7074 30.2974 24.701 30.3113 24.6981 30.3291H24.8118C24.8103 30.3107 24.8048 30.2968 24.7955 30.2872C24.7865 30.2776 24.7738 30.2728 24.7575 30.2728ZM24.9853 30.2484C25.0321 30.2484 25.0555 30.2741 25.0555 30.3256V30.4482H25.0241V30.3272C25.0241 30.3091 25.0205 30.2959 25.0132 30.2876C25.006 30.279 24.9946 30.2748 24.9791 30.2748C24.9609 30.2748 24.9465 30.2803 24.9356 30.2915C24.9247 30.3026 24.9193 30.3176 24.9193 30.3365V30.4482H24.8879V30.3078C24.8879 30.2876 24.8868 30.2693 24.8848 30.253H24.9146L24.9177 30.288C24.9237 30.2753 24.9326 30.2656 24.9445 30.2589C24.9564 30.2519 24.97 30.2484 24.9853 30.2484ZM24.3819 30.253V30.4467C24.3819 30.4757 24.3744 30.4975 24.3593 30.5123C24.3446 30.5273 24.3227 30.5348 24.2938 30.5348C24.264 30.5348 24.2384 30.5281 24.2169 30.5146L24.2224 30.489C24.2348 30.496 24.2464 30.501 24.2573 30.5041C24.2684 30.5072 24.2806 30.5088 24.2938 30.5088C24.3126 30.5088 24.3269 30.5037 24.3365 30.4936C24.346 30.4838 24.3508 30.4691 24.3508 30.4494V30.4032C24.3449 30.4156 24.3361 30.4253 24.3244 30.4323C24.313 30.4391 24.2995 30.4424 24.2837 30.4424C24.2666 30.4424 24.2513 30.4384 24.2379 30.4304C24.2247 30.4224 24.2145 30.411 24.2072 30.3962C24.2 30.3815 24.1964 30.3646 24.1964 30.3454C24.1964 30.3263 24.2 30.3093 24.2072 30.2946C24.2145 30.2798 24.2247 30.2684 24.2379 30.2604C24.2513 30.2524 24.2666 30.2484 24.2837 30.2484C24.2992 30.2484 24.3126 30.2518 24.324 30.2585C24.3357 30.2652 24.3445 30.2747 24.3504 30.2868V30.253H24.3819ZM24.2899 30.416C24.3088 30.416 24.3235 30.4098 24.3341 30.3974C24.345 30.3847 24.3504 30.3674 24.3504 30.3454C24.3504 30.3234 24.345 30.3062 24.3341 30.2938C24.3235 30.2811 24.3088 30.2748 24.2899 30.2748C24.2707 30.2748 24.2556 30.2811 24.2445 30.2938C24.2336 30.3062 24.2282 30.3234 24.2282 30.3454C24.2282 30.3674 24.2336 30.3847 24.2445 30.3974C24.2556 30.4098 24.2707 30.416 24.2899 30.416ZM24.6056 30.3497H24.4624C24.4626 30.3745 24.4683 30.3933 24.4795 30.4059C24.4908 30.4186 24.5073 30.425 24.5287 30.425C24.5515 30.425 24.5725 30.4173 24.5916 30.4021L24.6021 30.425C24.5935 30.433 24.5826 30.4393 24.5691 30.444C24.5559 30.4486 24.5423 30.451 24.5284 30.451C24.4978 30.451 24.4739 30.442 24.4566 30.4242C24.4392 30.4061 24.4306 30.3814 24.4306 30.3501C24.4306 30.3301 24.4344 30.3126 24.4422 30.2973C24.45 30.2818 24.4608 30.2697 24.4748 30.2612C24.4888 30.2527 24.5047 30.2484 24.5225 30.2484C24.5484 30.2484 24.5687 30.2569 24.5835 30.274C24.5982 30.2908 24.6056 30.3141 24.6056 30.3439V30.3497ZM24.5229 30.2728C24.5066 30.2728 24.4933 30.2778 24.4829 30.2876C24.4729 30.2974 24.4664 30.3113 24.4635 30.3291H24.5772C24.5757 30.3107 24.5703 30.2968 24.5609 30.2872C24.5519 30.2776 24.5392 30.2728 24.5229 30.2728ZM24.7507 30.2484C24.7975 30.2484 24.8209 30.2741 24.8209 30.3256V30.4482H24.7895V30.3272C24.7895 30.3091 24.7859 30.2959 24.7786 30.2876C24.7714 30.279 24.76 30.2748 24.7445 30.2748C24.7264 30.2748 24.7119 30.2803 24.701 30.2915C24.6902 30.3026 24.6847 30.3176 24.6847 30.3365V30.4482H24.6533V30.3078C24.6533 30.2876 24.6523 30.2693 24.6502 30.253H24.6801L24.6832 30.288C24.6891 30.2753 24.698 30.2656 24.7099 30.2589C24.7218 30.2519 24.7354 30.2484 24.7507 30.2484ZM24.2119 30.1719H24.3221C24.3505 30.1719 24.3727 30.1788 24.3885 30.1925C24.4045 30.2062 24.4125 30.2251 24.4125 30.2492C24.4125 30.2732 24.4045 30.2922 24.3885 30.3062C24.3724 30.3199 24.3503 30.3268 24.3221 30.3268H24.2437V30.4482H24.2119V30.1719ZM24.3194 30.3004C24.3398 30.3004 24.3552 30.296 24.3656 30.2872C24.3759 30.2784 24.3811 30.2657 24.3811 30.2492C24.3811 30.2326 24.3759 30.2201 24.3656 30.2115C24.3552 30.2027 24.3398 30.1983 24.3194 30.1983H24.2437V30.3004H24.3194ZM24.5354 30.451C24.5171 30.451 24.5009 30.4468 24.4869 30.4385C24.4729 30.4303 24.4621 30.4185 24.4543 30.4032C24.4468 30.388 24.4431 30.3701 24.4431 30.3497C24.4431 30.3292 24.4468 30.3114 24.4543 30.2961C24.4621 30.2809 24.4729 30.2691 24.4869 30.2608C24.5009 30.2525 24.5171 30.2484 24.5354 30.2484C24.5538 30.2484 24.57 30.2525 24.5839 30.2608C24.5979 30.2691 24.6086 30.2809 24.6161 30.2961C24.6239 30.3114 24.6278 30.3292 24.6278 30.3497C24.6278 30.3701 24.6239 30.388 24.6161 30.4032C24.6086 30.4185 24.5979 30.4303 24.5839 30.4385C24.57 30.4468 24.5538 30.451 24.5354 30.451ZM24.5354 30.425C24.5548 30.425 24.5697 30.4186 24.5801 30.4059C24.5904 30.393 24.5956 30.3743 24.5956 30.3497C24.5956 30.3259 24.5903 30.3075 24.5797 30.2946C24.5691 30.2814 24.5543 30.2748 24.5354 30.2748C24.5163 30.2748 24.5014 30.2814 24.4908 30.2946C24.4802 30.3075 24.4749 30.3259 24.4749 30.3497C24.4749 30.3743 24.4801 30.393 24.4904 30.4059C24.501 30.4186 24.516 30.425 24.5354 30.425ZM24.8402 30.253V30.4482H24.8095V30.4145C24.8033 30.4264 24.7946 30.4354 24.7835 30.4416C24.7724 30.4479 24.7598 30.451 24.7459 30.451C24.7228 30.451 24.7054 30.4445 24.6935 30.4316C24.6816 30.4186 24.6756 30.3995 24.6756 30.3741V30.253H24.707V30.3733C24.707 30.3909 24.7107 30.4039 24.7179 30.4122C24.7252 30.4204 24.7362 30.4246 24.7509 30.4246C24.7682 30.4246 24.7822 30.419 24.7928 30.4079C24.8034 30.3965 24.8087 30.3816 24.8087 30.3633V30.253H24.8402ZM24.9982 30.2484C25.045 30.2484 25.0684 30.2741 25.0684 30.3256V30.4482H25.037V30.3272C25.037 30.3091 25.0333 30.2959 25.0261 30.2876C25.0188 30.279 25.0075 30.2748 24.9919 30.2748C24.9738 30.2748 24.9593 30.2803 24.9485 30.2915C24.9376 30.3026 24.9322 30.3176 24.9322 30.3365V30.4482H24.9007V30.3078C24.9007 30.2876 24.8997 30.2693 24.8976 30.253H24.9275L24.9306 30.288C24.9366 30.2753 24.9455 30.2656 24.9574 30.2589C24.9693 30.2519 24.9829 30.2484 24.9982 30.2484ZM25.2997 30.1626V30.4482H25.2686V30.4129C25.2629 30.4251 25.2543 30.4345 25.2426 30.4413C25.2312 30.4477 25.2179 30.451 25.2026 30.451C25.1856 30.451 25.1704 30.4467 25.1572 30.4382C25.1443 30.4296 25.1342 30.4177 25.127 30.4025C25.1197 30.3869 25.1161 30.3691 25.1161 30.3489C25.1161 30.3287 25.1196 30.3111 25.1266 30.2961C25.1338 30.2809 25.144 30.2691 25.1572 30.2608C25.1704 30.2525 25.1856 30.2484 25.2026 30.2484C25.2179 30.2484 25.2312 30.2518 25.2426 30.2585C25.254 30.2649 25.2625 30.2741 25.2682 30.286V30.1626H25.2997ZM25.2089 30.425C25.228 30.425 25.2427 30.4185 25.2531 30.4056C25.2634 30.3924 25.2686 30.3737 25.2686 30.3497C25.2686 30.3259 25.2634 30.3075 25.2531 30.2946C25.2427 30.2814 25.228 30.2748 25.2089 30.2748C25.1897 30.2748 25.1747 30.2812 25.1638 30.2942C25.1532 30.3071 25.1479 30.3254 25.1479 30.3489C25.1479 30.373 25.1532 30.3917 25.1638 30.4052C25.1747 30.4184 25.1897 30.425 25.2089 30.425ZM25.4264 30.451C25.3935 30.451 25.3675 30.4426 25.3484 30.4257L25.3589 30.4025C25.3695 30.4107 25.3802 30.4167 25.3911 30.4203C25.402 30.4239 25.4141 30.4257 25.4276 30.4257C25.4423 30.4257 25.4534 30.4233 25.4609 30.4184C25.4687 30.4132 25.4726 30.4058 25.4726 30.3962C25.4726 30.3885 25.47 30.3823 25.4648 30.3776C25.4596 30.373 25.4511 30.3693 25.4392 30.3667L25.4062 30.359C25.3899 30.3554 25.3772 30.3489 25.3682 30.3396C25.3594 30.3303 25.355 30.3191 25.355 30.3062C25.355 30.2891 25.3619 30.2753 25.3756 30.2647C25.3893 30.2538 25.4074 30.2484 25.4299 30.2484C25.4436 30.2484 25.4565 30.2506 25.4687 30.255C25.4809 30.2594 25.4911 30.2657 25.4994 30.274L25.4889 30.2969C25.4705 30.2816 25.4508 30.274 25.4299 30.274C25.4159 30.274 25.4051 30.2767 25.3973 30.2822C25.3898 30.2873 25.386 30.2947 25.386 30.3043C25.386 30.3123 25.3884 30.3186 25.393 30.3233C25.3979 30.3279 25.4057 30.3316 25.4163 30.3342L25.4493 30.3423C25.4674 30.3464 25.4809 30.3529 25.4897 30.3617C25.4985 30.3702 25.5028 30.3815 25.5028 30.3955C25.5028 30.4123 25.496 30.4257 25.4823 30.4358C25.4686 30.4459 25.4499 30.451 25.4264 30.451Z" fill="#091E45"/>
<path d="M34 16.1131C34 14.9461 33.0379 14 31.851 14H14.149C12.9621 14 12 14.9461 12 16.1131V29.8869C12 31.0539 12.9621 32 14.149 32H31.851C33.0379 32 34 31.0539 34 29.8869V16.1131ZM14.1605 15.6887H31.8679C32.1049 15.6887 32.2957 15.8746 32.2957 16.1076V16.126L23.3177 24.9553C23.2081 25.063 23.0808 25.079 23.0143 25.079C22.9478 25.079 22.82 25.063 22.7105 24.9553L13.7303 16.1248V16.1076C13.7303 15.8746 13.9235 15.6887 14.1605 15.6887ZM31.8679 30.3113H14.1605C13.9235 30.3113 13.7303 30.1183 13.7303 29.8853V18.5155L21.4951 26.1507C21.901 26.5498 22.4407 26.7695 23.0147 26.7695C23.5888 26.7695 24.1274 26.5497 24.5333 26.1506L32.2957 18.5167V29.8853C32.2957 30.1183 32.1049 30.3113 31.8679 30.3113Z" fill="#091E45"/>
</svg>
