<svg width="48" height="48" viewBox="0 0 48 48" fill="none" xmlns="http://www.w3.org/2000/svg">
<path fill-rule="evenodd" clip-rule="evenodd" d="M24 48C37.2548 48 48 37.2548 48 24C48 10.7452 37.2548 0 24 0C10.7452 0 0 10.7452 0 24C0 37.2548 10.7452 48 24 48Z" fill="#D5DAE0"/>
<mask id="mask0_640_2940" style="mask-type:alpha" maskUnits="userSpaceOnUse" x="0" y="0" width="48" height="48">
<path fill-rule="evenodd" clip-rule="evenodd" d="M24 48C37.2548 48 48 37.2548 48 24C48 10.7452 37.2548 0 24 0C10.7452 0 0 10.7452 0 24C0 37.2548 10.7452 48 24 48Z" fill="white"/>
</mask>
<g mask="url(#mask0_640_2940)">
<path fill-rule="evenodd" clip-rule="evenodd" d="M33 31C36.866 31 40 27.866 40 24C40 20.134 36.866 17 33 17C29.134 17 26 20.134 26 24C26 27.866 29.134 31 33 31Z" fill="#F7F9FA"/>
<path fill-rule="evenodd" clip-rule="evenodd" d="M15 31C18.866 31 22 27.866 22 24C22 20.134 18.866 17 15 17C11.134 17 8 20.134 8 24C8 27.866 11.134 31 15 31Z" fill="#F7F9FA"/>
<path fill-rule="evenodd" clip-rule="evenodd" d="M43 23.2H40.9956C40.578 19.1579 37.1956 16 33.1033 16C30.5143 16 28.2176 17.2632 26.756 19.2C26.1297 18.7789 25.2527 18.4 24 18.4C22.7473 18.4 21.8286 18.7789 21.244 19.2C19.7824 17.2632 17.4857 16 14.8967 16C10.8044 16 7.42198 19.1579 7.0044 23.2H5V24.8H7.0044C7.42198 28.8421 10.8044 32 14.8967 32C19.2396 32 22.8308 28.4211 22.8308 24C22.8308 22.7789 22.5385 21.6421 22.0791 20.5895C22.4549 20.2947 23.0813 20 24 20C24.9187 20 25.5451 20.2947 25.9209 20.5895C25.4198 21.6421 25.1692 22.7789 25.1692 24C25.1692 28.3789 28.7187 32 33.1033 32C37.1956 32 40.578 28.8421 40.9956 24.8H43V23.2ZM33.1033 30.4C29.5956 30.4 26.756 27.5368 26.756 24C26.756 22.7368 27.1319 21.5158 27.8 20.5474L27.8835 20.4211C29.011 18.7368 30.9736 17.6 33.1451 17.6C36.6527 17.6 39.4923 20.4632 39.4923 24C39.4506 27.5368 36.5692 30.4 33.1033 30.4ZM14.8967 30.4C11.389 30.4 8.54945 27.5368 8.54945 24C8.54945 20.4632 11.389 17.6 14.8967 17.6C17.0681 17.6 18.989 18.7368 20.1582 20.4211L20.2418 20.5474C20.8681 21.5579 21.2857 22.7368 21.2857 24C21.244 27.5368 18.3626 30.4 14.8967 30.4Z" fill="#1E1E24"/>
</g>
</svg>
