<svg width="191" height="59" viewBox="0 0 191 59" fill="none" xmlns="http://www.w3.org/2000/svg">
<path d="M2.16211 45V18.3691H17.4023V21.9023H6.36328V29.2676H14.0449V32.8184H6.36328V41.2207H18.0703V45H2.16211ZM23.9766 40.2188C23.9766 40.9102 24.1465 41.4141 24.4863 41.7305C24.8262 42.0352 25.248 42.1875 25.752 42.1875C26.2559 42.1875 26.6309 42.1582 26.877 42.0996C27.1348 42.041 27.3867 41.9531 27.6328 41.8359L28.2832 41.502C28.4707 41.3965 28.6816 41.25 28.916 41.0625L29.4258 40.6582C29.5195 40.5762 29.6719 40.4414 29.8828 40.2539L30.1992 39.9551V35.6133C27.5742 36.2227 25.8574 36.8789 25.0488 37.582C24.334 38.2148 23.9766 39.0938 23.9766 40.2188ZM30.7266 45C30.375 44.7891 30.1992 44.2441 30.1992 43.3652L29.8652 43.752C28.8574 44.8301 27.416 45.3691 25.541 45.3691C23.2676 45.3691 21.709 44.5664 20.8652 42.9609C20.4316 42.1641 20.2148 41.2441 20.2148 40.2012C20.2148 39.1582 20.3965 38.2324 20.7598 37.4238C21.1348 36.6035 21.7383 35.8828 22.5703 35.2617C24.082 34.1367 26.625 33.2168 30.1992 32.502C30.1992 31.6699 30.1699 31.1602 30.1113 30.9727C30.0645 30.7852 30.0059 30.6094 29.9355 30.4453C29.877 30.2812 29.8008 30.1582 29.707 30.0762C29.6133 29.9824 29.4961 29.8828 29.3555 29.7773C29.2148 29.6719 29.0508 29.5957 28.8633 29.5488C28.4062 29.4316 27.8965 29.373 27.334 29.373C26.7832 29.373 26.2617 29.4609 25.7695 29.6367C25.2891 29.8008 24.9023 29.9883 24.6094 30.1992C24.3281 30.4102 24.0703 30.6562 23.8359 30.9375C23.5312 31.3125 23.3145 31.6406 23.1855 31.9219L20.7246 30.4102C21.2402 29.3438 21.6855 28.6348 22.0605 28.2832C22.4355 27.9199 22.8047 27.6094 23.168 27.3516C23.5312 27.0938 23.918 26.8887 24.3281 26.7363C25.3125 26.373 26.3145 26.1914 27.334 26.1914C28.3535 26.1914 29.1621 26.25 29.7598 26.3672C30.3691 26.4727 30.9434 26.6719 31.4824 26.9648C32.0332 27.2461 32.4844 27.627 32.8359 28.1074C33.5859 29.1504 33.9609 30.6738 33.9609 32.6777V42.3809C33.9609 42.709 34.0195 43.1719 34.1367 43.7695C34.2656 44.3672 34.3828 44.7773 34.4883 45H30.7266ZM161.807 18.1055C162.674 18.1055 163.137 18.1934 163.195 18.3691V21.5156H162C161.051 21.5273 160.43 21.6387 160.137 21.8496C159.621 22.2363 159.363 22.7168 159.363 23.291V26.4551H163.195V29.6367H159.363V45H155.602V29.6367H152.93V26.4551H155.602V22.4824C155.602 19.5645 157.67 18.1055 161.807 18.1055ZM167.889 33.5391H174.393C174.393 32.625 174.234 31.834 173.918 31.166C173.309 29.9355 172.465 29.3203 171.387 29.3203C170.742 29.3203 170.174 29.4668 169.682 29.7598C169.201 30.041 168.838 30.4102 168.592 30.8672C168.123 31.7227 167.889 32.6133 167.889 33.5391ZM164.936 41.4141C164.572 40.6055 164.314 39.7793 164.162 38.9355C164.021 38.0801 163.951 37.0078 163.951 35.7188C163.951 34.418 164.104 33.1582 164.408 31.9395C164.713 30.7207 165.105 29.7539 165.586 29.0391C166.066 28.3125 166.646 27.7266 167.326 27.2812C168.486 26.5195 169.852 26.1387 171.422 26.1387C172.898 26.1387 174.188 26.5781 175.289 27.457C177.352 29.1211 178.336 32.209 178.242 36.7207H167.713C167.713 39.0879 168.34 40.6816 169.594 41.502C170.238 41.9238 170.912 42.1348 171.615 42.1348C172.33 42.1348 172.922 42.0469 173.391 41.8711C173.859 41.6953 174.234 41.4961 174.516 41.2734C174.797 41.0508 175.055 40.793 175.289 40.5C175.605 40.0898 175.822 39.7383 175.939 39.4453L178.33 40.9922C177.463 42.5039 176.537 43.582 175.553 44.2266C174.463 44.9531 173.262 45.3164 171.949 45.3164C170.648 45.3164 169.535 45.1465 168.609 44.8066C167.695 44.4668 166.945 44.0156 166.359 43.4531C165.785 42.8906 165.311 42.2109 164.936 41.4141ZM181.301 45V26.4551H185.062V29.0039C185.109 28.9453 185.215 28.793 185.379 28.5469L185.801 27.9141C186.668 26.7305 188.098 26.1387 190.09 26.1387C190.301 26.1387 190.512 26.1562 190.723 26.1914V29.3379C188.59 29.373 187.055 29.9648 186.117 31.1133C185.695 31.6289 185.344 32.291 185.062 33.0996V45H181.301Z" fill="#0A4A82"/>
<path d="M35.543 45V42.5918L43.875 29.6367H36.4922V26.4551H49.0781V28.5645L40.8164 41.5898H49.3945V45H35.543ZM49.5352 45V42.5918L57.8672 29.6367H50.4844V26.4551H63.0703V28.5645L54.8086 41.5898H63.3867V45H49.5352ZM63.5273 26.4551H67.7109L71.6133 37.582L75.0938 26.4551H79.2773L73.0898 45.5625C72.4688 47.4844 71.9531 48.75 71.543 49.3594C71.1328 49.9688 70.7578 50.4492 70.418 50.8008C70.0898 51.1523 69.7324 51.4336 69.3457 51.6445C68.1152 52.3359 66.2988 52.5 63.8965 52.1367C63.791 52.125 63.7383 52.1191 63.7383 52.1191L63.9141 48.6211C64.3477 48.8086 64.916 48.9023 65.6191 48.9023C66.334 48.9023 66.9023 48.8086 67.3242 48.6211C67.7578 48.4336 68.1035 48.1934 68.3613 47.9004C68.6309 47.6074 68.8594 47.2793 69.0469 46.916C69.2344 46.5645 69.375 46.207 69.4688 45.8438C69.6445 45.1289 69.7383 44.4727 69.75 43.875L63.5273 26.4551ZM76.6758 21.9023V18.3691H95.2559V21.9023H88.0664V45H83.8652V21.9023H76.6758ZM94.043 45V26.4551H97.8047V29.0039C97.8516 28.9453 97.957 28.793 98.1211 28.5469L98.543 27.9141C99.4102 26.7305 100.84 26.1387 102.832 26.1387C103.043 26.1387 103.254 26.1562 103.465 26.1914V29.3379C101.332 29.373 99.7969 29.9648 98.8594 31.1133C98.4375 31.6289 98.0859 32.291 97.8047 33.0996V45H94.043ZM108.352 40.2188C108.352 40.9102 108.521 41.4141 108.861 41.7305C109.201 42.0352 109.623 42.1875 110.127 42.1875C110.631 42.1875 111.006 42.1582 111.252 42.0996C111.51 42.041 111.762 41.9531 112.008 41.8359L112.658 41.502C112.846 41.3965 113.057 41.25 113.291 41.0625L113.801 40.6582C113.895 40.5762 114.047 40.4414 114.258 40.2539L114.574 39.9551V35.6133C111.949 36.2227 110.232 36.8789 109.424 37.582C108.709 38.2148 108.352 39.0938 108.352 40.2188ZM115.102 45C114.75 44.7891 114.574 44.2441 114.574 43.3652L114.24 43.752C113.232 44.8301 111.791 45.3691 109.916 45.3691C107.643 45.3691 106.084 44.5664 105.24 42.9609C104.807 42.1641 104.59 41.2441 104.59 40.2012C104.59 39.1582 104.771 38.2324 105.135 37.4238C105.51 36.6035 106.113 35.8828 106.945 35.2617C108.457 34.1367 111 33.2168 114.574 32.502C114.574 31.6699 114.545 31.1602 114.486 30.9727C114.439 30.7852 114.381 30.6094 114.311 30.4453C114.252 30.2812 114.176 30.1582 114.082 30.0762C113.988 29.9824 113.871 29.8828 113.73 29.7773C113.59 29.6719 113.426 29.5957 113.238 29.5488C112.781 29.4316 112.271 29.373 111.709 29.373C111.158 29.373 110.637 29.4609 110.145 29.6367C109.664 29.8008 109.277 29.9883 108.984 30.1992C108.703 30.4102 108.445 30.6562 108.211 30.9375C107.906 31.3125 107.689 31.6406 107.561 31.9219L105.1 30.4102C105.615 29.3438 106.061 28.6348 106.436 28.2832C106.811 27.9199 107.18 27.6094 107.543 27.3516C107.906 27.0938 108.293 26.8887 108.703 26.7363C109.688 26.373 110.689 26.1914 111.709 26.1914C112.729 26.1914 113.537 26.25 114.135 26.3672C114.744 26.4727 115.318 26.6719 115.857 26.9648C116.408 27.2461 116.859 27.627 117.211 28.1074C117.961 29.1504 118.336 30.6738 118.336 32.6777V42.3809C118.336 42.709 118.395 43.1719 118.512 43.7695C118.641 44.3672 118.758 44.7773 118.863 45H115.102ZM135.562 31.0957V45H131.801V32.0801C131.801 31.2363 131.543 30.5684 131.027 30.0762C130.523 29.5723 129.92 29.3203 129.217 29.3203C128.514 29.3203 127.816 29.5312 127.125 29.9531C126.434 30.3633 125.918 30.7734 125.578 31.1836V45H121.816V26.4551H125.578V28.4238C126.258 27.7441 126.967 27.1934 127.705 26.7715C128.455 26.3496 129.328 26.1387 130.324 26.1387C131.848 26.1387 133.102 26.5547 134.086 27.3867C135.07 28.207 135.562 29.4434 135.562 31.0957ZM138.428 41.2734L141.029 39.6914C141.439 40.2773 141.82 40.7461 142.172 41.0977C143.004 41.918 144.053 42.3281 145.318 42.3281C146.338 42.3281 147.064 42.1172 147.498 41.6953C147.896 41.3086 148.096 40.7227 148.096 39.9375C148.096 39.0469 147.809 38.3789 147.234 37.9336C146.719 37.5469 146.209 37.2832 145.705 37.1426L144.053 36.668C142.143 36.1289 140.766 35.4023 139.922 34.4883C139.066 33.5625 138.639 32.3379 138.639 30.8145C138.639 29.5137 139.172 28.4238 140.238 27.5449C141.363 26.6074 142.975 26.1387 145.072 26.1387C146.959 26.1387 148.582 26.7832 149.941 28.0723C150.527 28.623 150.896 29.0859 151.049 29.4609L148.869 31.1836C148.049 30.1875 147.229 29.5723 146.408 29.3379C145.986 29.209 145.43 29.1445 144.738 29.1445C144.059 29.1445 143.473 29.3203 142.98 29.6719C142.5 30.0234 142.26 30.5391 142.26 31.2188C142.26 32.0039 142.605 32.6133 143.297 33.0469C143.906 33.4336 144.521 33.7207 145.143 33.9082L146.725 34.3477C149.209 35.0508 150.75 36.2402 151.348 37.916C151.594 38.5957 151.717 39.4043 151.717 40.3418C151.717 41.2676 151.424 42.1172 150.838 42.8906C150.264 43.6641 149.502 44.2617 148.553 44.6836C147.604 45.1055 146.643 45.3164 145.67 45.3164C144.709 45.3164 143.912 45.2578 143.279 45.1406C142.658 45.0234 142.055 44.8184 141.469 44.5254C140.332 43.9512 139.318 42.8672 138.428 41.2734Z" fill="#0898A0"/>
</svg>
