<svg width="512" height="600" viewBox="0 0 512 600" fill="none" xmlns="http://www.w3.org/2000/svg">
<mask id="path-1-inside-1_640_2076" fill="white">
<path fill-rule="evenodd" clip-rule="evenodd" d="M5 0C2.23858 0 0 2.23857 0 5V595C0 597.761 2.23858 600 5 600H507C509.761 600 512 597.761 512 595V5C512 2.23858 509.761 0 507 0H5ZM388 237.091C388 315.315 328.902 416 256 416C183.098 416 124 315.315 124 237.091C124 158.867 183.098 88 256 88C328.902 88 388 158.867 388 237.091Z"/>
</mask>
<path fill-rule="evenodd" clip-rule="evenodd" d="M5 0C2.23858 0 0 2.23857 0 5V595C0 597.761 2.23858 600 5 600H507C509.761 600 512 597.761 512 595V5C512 2.23858 509.761 0 507 0H5ZM388 237.091C388 315.315 328.902 416 256 416C183.098 416 124 315.315 124 237.091C124 158.867 183.098 88 256 88C328.902 88 388 158.867 388 237.091Z" fill="black" fill-opacity="0.8"/>
<path d="M1 5C1 2.79086 2.79086 1 5 1V-1C1.68629 -1 -1 1.68629 -1 5H1ZM1 595V5H-1V595H1ZM5 599C2.79086 599 1 597.209 1 595H-1C-1 598.314 1.68629 601 5 601V599ZM507 599H5V601H507V599ZM511 595C511 597.209 509.209 599 507 599V601C510.314 601 513 598.314 513 595H511ZM511 5V595H513V5H511ZM507 1C509.209 1 511 2.79086 511 5H513C513 1.68629 510.314 -1 507 -1V1ZM5 1H507V-1H5V1ZM256 417C292.927 417 326.191 391.517 350.164 356.444C374.152 321.347 389 276.426 389 237.091H387C387 275.979 372.299 320.513 348.513 355.315C324.71 390.14 291.974 415 256 415V417ZM123 237.091C123 276.426 137.848 321.347 161.836 356.444C185.809 391.517 219.073 417 256 417V415C220.026 415 187.29 390.14 163.487 355.315C139.701 320.513 125 275.979 125 237.091H123ZM256 87C182.419 87 123 158.452 123 237.091H125C125 159.283 183.778 89 256 89V87ZM389 237.091C389 158.452 329.581 87 256 87V89C328.222 89 387 159.283 387 237.091H389Z" fill="#A2A8B3" mask="url(#path-1-inside-1_640_2076)"/>
</svg>
