<svg width="48" height="48" viewBox="0 0 48 48" fill="none" xmlns="http://www.w3.org/2000/svg">
<path fill-rule="evenodd" clip-rule="evenodd" d="M24 48C37.2548 48 48 37.2548 48 24C48 10.7452 37.2548 0 24 0C10.7452 0 0 10.7452 0 24C0 37.2548 10.7452 48 24 48Z" fill="#D5DAE0"/>
<mask id="mask0_640_2914" style="mask-type:alpha" maskUnits="userSpaceOnUse" x="0" y="0" width="48" height="48">
<path fill-rule="evenodd" clip-rule="evenodd" d="M24 48C37.2548 48 48 37.2548 48 24C48 10.7452 37.2548 0 24 0C10.7452 0 0 10.7452 0 24C0 37.2548 10.7452 48 24 48Z" fill="white"/>
</mask>
<g mask="url(#mask0_640_2914)">
<path fill-rule="evenodd" clip-rule="evenodd" d="M35.8697 22.2225C35.8705 22.1484 35.8709 22.0743 35.8709 22C35.8709 13.7335 30.7872 7.03223 24.5161 7.03223C18.245 7.03223 13.1613 13.7335 13.1613 22C13.1613 22.0743 13.1617 22.1484 13.1625 22.2225C11.2223 23.0132 10.0645 24.0115 10.0645 25.0967C10.0645 26.3692 11.6563 27.5222 14.2348 28.3612C15.4697 31.8234 17.6815 34.5604 20.4019 35.955C19.1325 36.8069 18.3225 38.1002 18.3225 39.5484C18.3225 39.883 18.3658 40.2094 18.448 40.524C12.9304 41.4769 9.03223 43.8079 9.03223 46.5322C9.03223 50.1043 15.7335 53 24 53C32.2664 53 38.9677 50.1043 38.9677 46.5322C38.9677 43.8079 35.0696 41.4769 29.5519 40.524C29.6341 40.2094 29.6774 39.883 29.6774 39.5484C29.6774 38.259 29.0353 37.0923 27.9985 36.2507C31.0073 34.9741 33.4682 32.0877 34.7974 28.3612C37.3759 27.5222 38.9677 26.3692 38.9677 25.0967C38.9677 24.0115 37.8099 23.0132 35.8697 22.2225Z" fill="#F7F9FA"/>
<path d="M21 31C21 31 23 31.3 24 31.3C25 31.3 27 31 27 31" stroke="#1E1E24" stroke-width="1.5" stroke-linecap="round" stroke-linejoin="round"/>
<path fill-rule="evenodd" clip-rule="evenodd" d="M29.954 25.4806C30.6276 25.4806 31.1737 24.9355 31.1737 24.2631C31.1737 23.5906 30.6276 23.0455 29.954 23.0455C29.2804 23.0455 28.7344 23.5906 28.7344 24.2631C28.7344 24.9355 29.2804 25.4806 29.954 25.4806Z" fill="#1E1E24"/>
<path fill-rule="evenodd" clip-rule="evenodd" d="M18.9765 25.4806C19.6501 25.4806 20.1961 24.9355 20.1961 24.2631C20.1961 23.5906 19.6501 23.0455 18.9765 23.0455C18.3029 23.0455 17.7568 23.5906 17.7568 24.2631C17.7568 24.9355 18.3029 25.4806 18.9765 25.4806Z" fill="#1E1E24"/>
<path fill-rule="evenodd" clip-rule="evenodd" d="M35.8399 22.5551C35.3394 22.5551 34.9336 22.1198 34.9336 21.5828C34.9336 21.0458 35.3394 20.6105 35.8399 20.6105C38.0338 20.6105 39.8122 22.5184 39.8122 24.8718C39.8122 27.2253 38.0338 29.1332 35.8399 29.1332C35.3394 29.1332 34.9336 28.6979 34.9336 28.1609C34.9336 27.6239 35.3394 27.1886 35.8399 27.1886C37.0326 27.1886 37.9995 26.1513 37.9995 24.8718C37.9995 23.5923 37.0326 22.5551 35.8399 22.5551Z" fill="#1E1E24"/>
<path fill-rule="evenodd" clip-rule="evenodd" d="M13.192 20.6105C13.6925 20.6105 14.0983 21.0458 14.0983 21.5828C14.0983 22.1198 13.6925 22.5551 13.192 22.5551C11.9993 22.5551 11.0324 23.5923 11.0324 24.8718C11.0324 26.1513 11.9993 27.1886 13.192 27.1886C13.6925 27.1886 14.0983 27.6239 14.0983 28.1609C14.0983 28.6979 13.6925 29.1332 13.192 29.1332C10.9982 29.1332 9.21973 27.2253 9.21973 24.8718C9.21973 22.5184 10.9982 20.6105 13.192 20.6105Z" fill="#1E1E24"/>
<path fill-rule="evenodd" clip-rule="evenodd" d="M33.2104 19.2152C33.6468 19.4658 33.7433 19.9481 33.426 20.2926C33.1087 20.6371 32.4978 20.7133 32.0615 20.4628C30.7682 19.7203 29.0993 19.5187 27.584 19.9219C27.0728 20.058 26.5187 19.841 26.3463 19.4374C26.174 19.0337 26.4488 18.5962 26.96 18.4602C29.0754 17.8972 31.405 18.1787 33.2104 19.2152Z" fill="#1E1E24"/>
<path fill-rule="evenodd" clip-rule="evenodd" d="M16.8695 20.4625C16.434 20.7131 15.8234 20.6376 15.5058 20.2939C15.1882 19.9502 15.2839 19.4684 15.7195 19.2178C17.5241 18.1796 19.8551 17.8969 21.9716 18.4596C22.4825 18.5955 22.757 19.0323 22.5849 19.4354C22.4128 19.8385 21.8591 20.0552 21.3483 19.9193C19.8321 19.5162 18.1623 19.7187 16.8695 20.4625Z" fill="#1E1E24"/>
<path fill-rule="evenodd" clip-rule="evenodd" d="M14.6054 17.7422C14.334 18.1717 13.7588 18.3041 13.3207 18.038C12.8826 17.772 12.7475 17.2081 13.0189 16.7786C13.0478 16.733 13.0976 16.6581 13.168 16.5581C13.2808 16.3977 13.4131 16.2207 13.5646 16.0311C13.9948 15.4926 14.496 14.9551 15.0663 14.4516C16.7147 12.9964 18.6051 12.1042 20.7111 12.0878C21.6802 12.0808 22.5665 12.2989 23.5357 12.7352C24.181 13.0257 26.4875 14.3239 26.4929 14.3268C29.0412 15.6776 31.4903 16.3456 35.1192 16.3456C35.6345 16.3456 36.0523 16.7552 36.0523 17.2604C36.0523 17.7656 35.6345 18.1752 35.1192 18.1752C31.164 18.1752 28.4142 17.4251 25.6052 15.9361C25.5313 15.8969 23.3114 14.6474 22.7569 14.3978C22.0199 14.0661 21.3957 13.9125 20.7254 13.9173C19.137 13.9297 17.6532 14.63 16.3152 15.8112C15.8304 16.2391 15.401 16.6996 15.0339 17.1591C14.9063 17.3188 14.7962 17.4661 14.7043 17.5968C14.6517 17.6715 14.6186 17.7214 14.6054 17.7422Z" fill="#1E1E24"/>
<path fill-rule="evenodd" clip-rule="evenodd" d="M33.4503 29.8076C33.6392 29.3184 33.7884 28.8054 33.9023 28.2643C34.1893 26.9003 34.2359 25.7364 34.1873 23.4253C34.1728 22.7321 34.1688 22.4899 34.1688 22.1531V17.7996C34.1688 12.2202 29.9282 7.83214 24.4479 7.83214C18.9689 7.83214 14.727 12.221 14.727 17.7996V26.6515C14.727 26.9986 14.7456 27.1931 14.7831 27.3805C14.7881 27.4057 14.8169 27.54 14.8254 27.5835C14.8352 27.6338 14.8434 27.681 14.8502 27.7296C14.8547 27.7651 14.8613 27.81 14.8738 27.8819C14.8962 28.0109 14.9271 28.1626 14.9679 28.3348C15.0868 28.8365 15.2604 29.3947 15.4986 29.9919C16.8271 33.3181 20.3337 35.8238 24.4511 35.8238C28.2674 35.8238 32.0049 33.5617 33.4233 29.8882C33.431 29.8612 33.44 29.8343 33.4503 29.8076ZM24.4511 37.6559C19.5546 37.6559 15.3807 34.6735 13.7802 30.666C13.5077 29.9828 13.3077 29.3397 13.1688 28.7537C13.1194 28.5453 13.0811 28.3577 13.0525 28.1931C13.036 28.0983 13.0253 28.0262 13.0192 27.9783C13.0065 27.909 12.9789 27.7798 12.9703 27.7368C12.9089 27.43 12.8789 27.1163 12.8789 26.6515V17.7996C12.8789 11.2262 17.9302 6 24.4479 6C30.967 6 36.0169 11.2255 36.0169 17.7996V22.1531C36.0169 22.4723 36.0207 22.7078 36.035 23.3871C36.0864 25.8323 36.0358 27.0971 35.7114 28.6385C35.5844 29.2421 35.4183 29.8209 35.2084 30.3784C33.5042 34.9278 29.0284 37.6559 24.4511 37.6559Z" fill="#1E1E24"/>
<path fill-rule="evenodd" clip-rule="evenodd" d="M28.1289 36.1356C28.1289 35.6496 28.5373 35.2556 29.0411 35.2556C29.5449 35.2556 29.9534 35.6496 29.9534 36.1356V39.5323L29.9499 39.5704C29.6752 42.6105 27.0436 44.9476 23.8799 44.961C20.7163 44.9745 18.0635 42.6598 17.761 39.6222L17.7568 39.5802V36.1008C17.7568 35.6148 18.1653 35.2208 18.6691 35.2208C19.1729 35.2208 19.5813 35.6148 19.5813 36.1008V39.4939C19.8127 41.6063 21.6653 43.2106 23.8719 43.2012C26.0798 43.1918 27.9185 41.57 28.1289 39.4539V36.1356Z" fill="#1E1E24"/>
<path fill-rule="evenodd" clip-rule="evenodd" d="M37.779 46.4716C37.6916 46.2678 37.5538 46.0282 37.3705 45.7675C36.9567 45.1792 36.3487 44.5347 35.6042 43.9147C33.812 42.4221 31.4771 41.2497 28.8748 40.6799C28.3799 40.5716 28.0668 40.0841 28.1757 39.5912C28.2845 39.0983 28.7739 38.7866 29.2688 38.8949C32.166 39.5292 34.7677 40.8356 36.7814 42.5127C38.555 43.9897 39.711 45.633 39.711 46.8003C39.711 47.8835 37.8873 49.5473 35.3896 50.8563C32.2542 52.4994 28.3305 53.4838 23.856 53.4838C19.3816 53.4838 15.4576 52.4995 12.3219 50.8563C9.82394 49.5473 8 47.8835 8 46.8003C8 45.6431 9.15355 44.0206 10.9245 42.5499C12.9212 40.8917 15.4929 39.5878 18.3383 38.9392C18.8323 38.8266 19.3244 39.1341 19.4375 39.6261C19.5506 40.118 19.2418 40.6081 18.7478 40.7207C16.1909 41.3036 13.8796 42.4755 12.0998 43.9535C11.3579 44.5696 10.7514 45.2081 10.3386 45.7887C10.1554 46.0464 10.0178 46.2828 9.93066 46.4833C9.89092 46.5748 9.86477 46.6515 9.85004 46.7093C9.86503 46.733 9.88361 46.7605 9.90569 46.791C10.0346 46.9689 10.2403 47.192 10.5074 47.4357C11.1607 48.0316 12.0794 48.664 13.1765 49.2389C16.0511 50.7453 19.6822 51.6562 23.856 51.6562C28.0298 51.6562 31.6607 50.7453 34.535 49.2389C35.6319 48.664 36.5505 48.0317 37.2037 47.4357C37.4708 47.1921 37.6764 46.9689 37.8053 46.791C37.8277 46.7601 37.8465 46.7323 37.8616 46.7083C37.8468 46.6477 37.82 46.5673 37.779 46.4716Z" fill="#1E1E24"/>
</g>
</svg>
